<svg width="115" height="115" viewBox="0 0 115 115" fill="none" xmlns="http://www.w3.org/2000/svg">
<path d="M102.5 45C112.5 52.4998 109.771 72.1689 99.9999 85.9999C86.7927 104.696 63.0118 113.578 39.9999 107.5C20.4272 102.33 9.50002 87.9999 7.39763 70.3848C4.13449 43.0442 12.1294 6.88122 40 8.5C58.0629 9.54914 54.3373 25.5114 70.105 33.893C85.5742 42.1158 88.9364 34.8275 102.5 45Z" fill="#92CCFC"/>
<rect x="28.2629" y="22.6221" width="54.9274" height="73.6725" rx="8" fill="#FFDC9B"/>
<path d="M28.2629 30.6221C28.2629 26.2038 31.8447 22.6221 36.2629 22.6221H41.7768V96.2945H36.2629C31.8447 96.2945 28.2629 92.7128 28.2629 88.2945V30.6221Z" fill="#FFC14E"/>
<rect x="49.6237" y="31.7766" width="24.4122" height="15.2576" fill="#F8FCFF"/>
<rect x="28.7629" y="23.1221" width="53.9274" height="72.6725" rx="7.5" stroke="#3C3744"/>
<line x1="26.3395" y1="31.0845" x2="34.1096" y2="31.0845" stroke="#F8FCFF" stroke-width="4" stroke-linecap="round"/>
<line x1="26.3395" y1="41.9827" x2="34.1096" y2="41.9827" stroke="#F8FCFF" stroke-width="4" stroke-linecap="round"/>
<line x1="26.3395" y1="52.8809" x2="34.1096" y2="52.8809" stroke="#F8FCFF" stroke-width="4" stroke-linecap="round"/>
<line x1="26.3395" y1="63.7793" x2="34.1096" y2="63.7793" stroke="#F8FCFF" stroke-width="4" stroke-linecap="round"/>
<line x1="26.3395" y1="74.6775" x2="34.1096" y2="74.6775" stroke="#F8FCFF" stroke-width="4" stroke-linecap="round"/>
<line x1="26.3395" y1="85.5759" x2="34.1096" y2="85.5759" stroke="#F8FCFF" stroke-width="4" stroke-linecap="round"/>
<path d="M53.765 36.3538H69.8945" stroke="#3C3744" stroke-linecap="round"/>
<path d="M53.765 39.1875H69.8945" stroke="#3C3744" stroke-linecap="round"/>
<path d="M53.765 42.021H69.8945" stroke="#3C3744" stroke-linecap="round"/>
<path d="M60.7399 40.0976V22.6221H67.2788V40.0976L64.0094 36.8282L60.7399 40.0976Z" fill="#8FD470"/>
<path d="M68.5396 77.3557L65.3395 87.7322L75.372 83.5776L76.4747 82.3667L69.6423 76.1448L68.5396 77.3557Z" fill="#FFC14E"/>
<path d="M66.1478 85.1189L65.2139 87.8061L67.8664 86.6839L66.1478 85.1189Z" fill="#F8FCFF"/>
<path d="M85.0804 59.1918L88.3662 55.5836C89.5966 54.2325 91.5553 54.0126 92.7412 55.0926L95.2792 57.4037C96.465 58.4836 96.4289 60.4544 95.1985 61.8055L91.9128 65.4137L85.0804 59.1918Z" fill="#F8FCFF"/>
<rect x="86.1831" y="57.981" width="9.24084" height="26.2044" transform="rotate(42.3224 86.1831 57.981)" fill="#8FD470"/>
<rect x="86.1913" y="57.9719" width="9.15457" height="1.74373" transform="rotate(42.3224 86.1913 57.9719)" fill="#FFC14E"/>
<mask id="path-21-inside-1_184_1386" fill="white">
<path fill-rule="evenodd" clip-rule="evenodd" d="M85.0803 59.1918L86.1912 57.9718L86.1912 57.9719L88.3661 55.5836C89.5965 54.2325 91.5553 54.0126 92.7411 55.0925L95.2791 57.4037C96.465 58.4836 96.4289 60.4543 95.1985 61.8055L93.0154 64.2028L91.9127 65.4136L76.4747 82.3665L75.3719 83.5774L75.3719 83.5775L67.6628 86.7699L65.2139 87.8059L66.1266 85.1795L68.5395 77.3556L68.5395 77.3556L68.5396 77.3555L69.6423 76.1446L85.0172 59.2611L85.0803 59.1918Z"/>
</mask>
<path d="M85.0803 59.1918L85.8195 59.8653L85.8197 59.865L85.0803 59.1918ZM86.1912 57.9718L86.869 57.2366L86.1293 56.5546L85.4518 57.2986L86.1912 57.9718ZM86.1912 57.9719L85.5134 58.7071L86.2532 59.3891L86.9306 58.6452L86.1912 57.9719ZM88.3661 55.5836L87.6267 54.9103L87.6267 54.9103L88.3661 55.5836ZM92.7411 55.0925L92.0678 55.8319V55.8319L92.7411 55.0925ZM95.2791 57.4037L95.9524 56.6643V56.6643L95.2791 57.4037ZM95.1985 61.8055L94.4591 61.1322L94.4591 61.1322L95.1985 61.8055ZM93.0154 64.2028L93.7548 64.8761L93.7548 64.8761L93.0154 64.2028ZM91.9127 65.4136L91.1734 64.7403L91.1733 64.7403L91.9127 65.4136ZM76.4747 82.3665L77.214 83.0398L77.214 83.0398L76.4747 82.3665ZM75.3719 83.5774L76.0948 84.2684L76.1032 84.2597L76.1113 84.2507L75.3719 83.5774ZM75.3719 83.5775L75.7545 84.5014L75.9492 84.4208L76.0948 84.2685L75.3719 83.5775ZM67.6628 86.7699L67.2802 85.8459L67.2732 85.8489L67.6628 86.7699ZM65.2139 87.8059L64.2693 87.4776L63.5303 89.6039L65.6035 88.7269L65.2139 87.8059ZM66.1266 85.1795L67.0712 85.5078L67.077 85.4911L67.0822 85.4742L66.1266 85.1795ZM68.5395 77.3556L69.4951 77.6503L69.6825 77.0427L69.2117 76.6152L68.5395 77.3556ZM68.5395 77.3556L67.8297 76.6512L67.0933 77.3933L67.8674 78.096L68.5395 77.3556ZM68.5396 77.3555L69.2494 78.06L69.2645 78.0447L69.2789 78.0289L68.5396 77.3555ZM69.6423 76.1446L70.3817 76.8179L70.3817 76.8179L69.6423 76.1446ZM85.0172 59.2611L84.278 58.5876L84.2778 58.5878L85.0172 59.2611ZM85.8197 59.865L86.9306 58.6451L85.4518 57.2986L84.341 58.5185L85.8197 59.865ZM85.5134 58.7071L85.5134 58.7071L86.869 57.2366L86.869 57.2366L85.5134 58.7071ZM86.9306 58.6452L89.1055 56.2569L87.6267 54.9103L85.4519 57.2986L86.9306 58.6452ZM89.1055 56.2569C90.0492 55.2205 91.378 55.2037 92.0678 55.8319L93.4144 54.3531C91.7326 52.8215 89.1438 53.2444 87.6267 54.9103L89.1055 56.2569ZM92.0678 55.8319L94.6058 58.1431L95.9524 56.6643L93.4144 54.3531L92.0678 55.8319ZM94.6058 58.1431C95.2957 58.7713 95.4029 60.0958 94.4591 61.1322L95.9378 62.4788C97.4549 60.8129 97.6343 58.1959 95.9524 56.6643L94.6058 58.1431ZM94.4591 61.1322L92.276 63.5295L93.7548 64.8761L95.9379 62.4788L94.4591 61.1322ZM92.276 63.5295L91.1734 64.7403L92.6521 66.0869L93.7548 64.8761L92.276 63.5295ZM91.1733 64.7403L75.7353 81.6932L77.214 83.0398L92.6521 66.0869L91.1733 64.7403ZM75.7353 81.6932L74.6326 82.9041L76.1113 84.2507L77.214 83.0398L75.7353 81.6932ZM74.6491 82.8864L74.649 82.8865L76.0948 84.2685L76.0948 84.2684L74.6491 82.8864ZM74.9893 82.6536L67.2802 85.846L68.0454 87.6938L75.7545 84.5014L74.9893 82.6536ZM67.2732 85.8489L64.8242 86.8849L65.6035 88.7269L68.0524 87.6908L67.2732 85.8489ZM66.1584 88.1342L67.0712 85.5078L65.1821 84.8512L64.2693 87.4776L66.1584 88.1342ZM67.0822 85.4742L69.4951 77.6503L67.584 77.0609L65.1711 84.8848L67.0822 85.4742ZM69.2117 76.6152L69.2117 76.6152L67.8674 78.096L67.8674 78.0961L69.2117 76.6152ZM69.2493 78.06L69.2494 78.06L67.8298 76.6511L67.8297 76.6512L69.2493 78.06ZM69.2789 78.0289L70.3817 76.8179L68.9029 75.4713L67.8002 76.6822L69.2789 78.0289ZM70.3817 76.8179L85.7565 59.9344L84.2778 58.5878L68.9029 75.4713L70.3817 76.8179ZM85.7563 59.9346L85.8195 59.8653L84.3412 58.5183L84.278 58.5876L85.7563 59.9346Z" fill="#3C3744" mask="url(#path-21-inside-1_184_1386)"/>
<path d="M73 77.3857L86.2959 63" stroke="#3C3744" stroke-linecap="round"/>
</svg>
